<svg version="1.1" id="Layer_1" xmlns="http://www.w3.org/2000/svg" xmlns:xlink="http://www.w3.org/1999/xlink" x="0px" y="0px"
	 width="100%" viewBox="0 0 400 400" enable-background="new 0 0 400 400" xml:space="preserve">
<path fill="#353535" opacity="1.000000" stroke="none" 
	d="
M193.000000,401.000000 
	C128.686615,401.000000 64.873222,401.000000 1.029917,401.000000 
	C1.029917,267.728271 1.029917,134.456543 1.029917,1.092406 
	C134.230011,1.092406 267.460114,1.092406 400.845093,1.092406 
	C400.845093,134.333191 400.845093,267.666565 400.845093,401.000000 
	C331.789948,401.000000 262.644989,401.000000 193.000000,401.000000 
M194.510315,95.114014 
	C190.076965,95.114014 185.643631,95.114014 180.840790,95.114014 
	C180.840790,101.716873 181.001633,107.539780 180.724304,113.341721 
	C180.657471,114.739738 179.448013,116.797142 178.237991,117.309837 
	C170.766495,120.475609 163.144516,123.286255 154.542160,126.613449 
	C150.468857,122.086403 145.799835,116.897263 141.273483,111.866692 
	C131.311325,121.925682 121.963577,131.364288 111.960869,141.464218 
	C116.879555,145.884903 122.069740,150.549606 126.683990,154.696671 
	C123.489365,162.726685 120.436852,169.729004 117.963028,176.930084 
	C116.893379,180.043762 115.455757,181.036743 112.292999,180.899582 
	C106.712318,180.657562 101.113579,180.831833 95.490875,180.831833 
	C95.490875,194.682739 95.490875,207.738297 95.490875,221.171066 
	C101.701027,221.171066 107.525223,221.010681 113.328568,221.287567 
	C114.721474,221.354050 116.768646,222.566071 117.282288,223.774979 
	C120.456558,231.246002 123.278435,238.866730 126.613098,247.457092 
	C122.076767,251.533524 116.884178,256.199677 111.867805,260.707489 
	C121.950211,270.676086 131.397247,280.016449 141.491791,289.997040 
	C145.887329,285.112335 150.554581,279.925690 154.712875,275.304626 
	C162.741058,278.501709 169.739136,281.564789 176.942154,284.028717 
	C180.070374,285.098785 181.049377,286.538330 180.916183,289.694366 
	C180.680496,295.279266 180.850128,300.881317 180.850128,306.533081 
	C194.662140,306.533081 207.715714,306.533081 221.152435,306.533081 
	C221.152435,300.332642 220.993622,294.510803 221.268112,288.709442 
	C221.333786,287.321198 222.535110,285.279968 223.737579,284.767578 
	C231.208786,281.584259 238.829086,278.750793 247.382416,275.418549 
	C251.457932,279.961060 256.116119,285.153015 260.636810,290.191650 
	C270.731506,280.125397 280.136688,270.746704 290.157379,260.754242 
	C285.094391,256.185852 279.912079,251.509842 275.293213,247.342194 
	C278.493713,239.305756 281.545776,232.303314 284.026245,225.103928 
	C285.090973,222.013657 286.487183,220.959564 289.671997,221.099670 
	C295.255280,221.345276 300.857147,221.168213 306.520508,221.168213 
	C306.520508,207.344986 306.520508,194.290207 306.520508,180.829193 
	C300.326324,180.829193 294.506134,180.988342 288.706451,180.714172 
	C287.305450,180.647949 285.238922,179.460770 284.727600,178.258011 
	C281.551483,170.787170 278.731201,163.165054 275.414276,154.617386 
	C279.948883,150.526611 285.129059,145.853439 290.029480,141.432617 
	C280.010162,131.399002 270.622650,121.998108 260.627258,111.988457 
	C256.196930,116.894447 251.518082,122.075623 247.410202,126.624550 
	C238.872711,123.291878 231.247070,120.479660 223.802139,117.250801 
	C222.526886,116.697723 221.360611,114.400948 221.280533,112.850960 
	C220.983688,107.105667 221.162308,101.335800 221.162308,95.114098 
	C212.102097,95.114098 203.804184,95.114098 194.510315,95.114014 
z"/>
<path fill="#72A7CE" opacity="1.000000" stroke="none" 
	d="
M195.008301,95.114059 
	C203.804184,95.114098 212.102097,95.114098 221.162308,95.114098 
	C221.162308,101.335800 220.983688,107.105667 221.280533,112.850960 
	C221.360611,114.400948 222.526886,116.697723 223.802139,117.250801 
	C231.247070,120.479660 238.872711,123.291878 247.410202,126.624550 
	C251.518082,122.075623 256.196930,116.894447 260.627258,111.988457 
	C270.622650,121.998108 280.010162,131.399002 290.029480,141.432617 
	C285.129059,145.853439 279.948883,150.526611 275.414276,154.617386 
	C278.731201,163.165054 281.551483,170.787170 284.727600,178.258011 
	C285.238922,179.460770 287.305450,180.647949 288.706451,180.714172 
	C294.506134,180.988342 300.326324,180.829193 306.520508,180.829193 
	C306.520508,194.290207 306.520508,207.344986 306.520508,221.168213 
	C300.857147,221.168213 295.255280,221.345276 289.671997,221.099670 
	C286.487183,220.959564 285.090973,222.013657 284.026245,225.103928 
	C281.545776,232.303314 278.493713,239.305756 275.293213,247.342194 
	C279.912079,251.509842 285.094391,256.185852 290.157379,260.754242 
	C280.136688,270.746704 270.731506,280.125397 260.636810,290.191650 
	C256.116119,285.153015 251.457932,279.961060 247.382416,275.418549 
	C238.829086,278.750793 231.208786,281.584259 223.737579,284.767578 
	C222.535110,285.279968 221.333786,287.321198 221.268112,288.709442 
	C220.993622,294.510803 221.152435,300.332642 221.152435,306.533081 
	C207.715714,306.533081 194.662140,306.533081 180.850128,306.533081 
	C180.850128,300.881317 180.680496,295.279266 180.916183,289.694366 
	C181.049377,286.538330 180.070374,285.098785 176.942154,284.028717 
	C169.739136,281.564789 162.741058,278.501709 154.712875,275.304626 
	C150.554581,279.925690 145.887329,285.112335 141.491791,289.997040 
	C131.397247,280.016449 121.950211,270.676086 111.867805,260.707489 
	C116.884178,256.199677 122.076767,251.533524 126.613098,247.457092 
	C123.278435,238.866730 120.456558,231.246002 117.282288,223.774979 
	C116.768646,222.566071 114.721474,221.354050 113.328568,221.287567 
	C107.525223,221.010681 101.701027,221.171066 95.490875,221.171066 
	C95.490875,207.738297 95.490875,194.682739 95.490875,180.831833 
	C101.113579,180.831833 106.712318,180.657562 112.292999,180.899582 
	C115.455757,181.036743 116.893379,180.043762 117.963028,176.930084 
	C120.436852,169.729004 123.489365,162.726685 126.683990,154.696671 
	C122.069740,150.549606 116.879555,145.884903 111.960869,141.464218 
	C121.963577,131.364288 131.311325,121.925682 141.273483,111.866692 
	C145.799835,116.897263 150.468857,122.086403 154.542160,126.613449 
	C163.144516,123.286255 170.766495,120.475609 178.237991,117.309837 
	C179.448013,116.797142 180.657471,114.739738 180.724304,113.341721 
	C181.001633,107.539780 180.840790,101.716873 180.840790,95.114014 
	C185.643631,95.114014 190.076965,95.114014 195.008301,95.114059 
M161.587952,228.868530 
	C171.880630,242.647079 185.540054,249.566223 202.821442,249.127029 
	C230.831192,248.415192 251.929581,223.706467 248.941971,195.104630 
	C246.105545,167.950104 218.993713,148.137573 192.085037,153.555298 
	C157.571335,160.504181 142.078857,197.936752 161.587952,228.868530 
z"/>
<path fill="#363636" opacity="1.000000" stroke="none" 
	d="
M161.372192,228.576447 
	C142.078857,197.936752 157.571335,160.504181 192.085037,153.555298 
	C218.993713,148.137573 246.105545,167.950104 248.941971,195.104630 
	C251.929581,223.706467 230.831192,248.415192 202.821442,249.127029 
	C185.540054,249.566223 171.880630,242.647079 161.372192,228.576447 
M212.143677,203.427032 
	C212.143677,206.457870 212.143677,209.488724 212.143677,212.519562 
	C206.063034,202.999893 200.651627,193.506241 196.051163,183.634644 
	C193.629837,178.438965 190.517960,176.823975 185.144104,178.481659 
	C185.144104,192.842056 185.144104,207.253036 185.144104,222.030869 
	C187.083740,221.936844 188.779922,221.854630 190.869659,221.753326 
	C190.869659,210.064499 190.869659,198.853516 190.869659,187.642548 
	C196.817627,197.019485 202.238083,206.468216 206.829651,216.303879 
	C209.247086,221.482285 212.363052,223.136230 218.018768,221.538773 
	C218.018768,214.376999 218.018768,207.089127 218.018768,199.801239 
	C218.018768,192.556488 218.018768,185.311737 218.018768,177.891647 
	C215.692780,178.027130 214.091919,178.120377 212.143692,178.233856 
	C212.143692,186.520325 212.143692,194.484360 212.143677,203.427032 
z"/>
<path fill="#F6F6F6" opacity="1.000000" stroke="none" 
	d="
M212.143677,202.937714 
	C212.143692,194.484360 212.143692,186.520325 212.143692,178.233856 
	C214.091919,178.120377 215.692780,178.027130 218.018768,177.891647 
	C218.018768,185.311737 218.018768,192.556488 218.018768,199.801239 
	C218.018768,207.089127 218.018768,214.376999 218.018768,221.538773 
	C212.363052,223.136230 209.247086,221.482285 206.829651,216.303879 
	C202.238083,206.468216 196.817627,197.019485 190.869659,187.642548 
	C190.869659,198.853516 190.869659,210.064499 190.869659,221.753326 
	C188.779922,221.854630 187.083740,221.936844 185.144104,222.030869 
	C185.144104,207.253036 185.144104,192.842056 185.144104,178.481659 
	C190.517960,176.823975 193.629837,178.438965 196.051163,183.634644 
	C200.651627,193.506241 206.063034,202.999893 212.143677,212.519562 
	C212.143677,209.488724 212.143677,206.457870 212.143677,202.937714 
z"/>
</svg>